<?xml version="1.0" encoding="UTF-8"?>
<svg id="Globe" xmlns="http://www.w3.org/2000/svg" version="1.1" viewBox="0 0 512 512">
  <path d="M256,512c-68.38,0-132.67-26.63-181.02-74.98C26.63,388.67,0,324.38,0,256S26.63,123.33,74.98,74.98,187.62,0,256,0c68.34.07,132.6,26.73,180.93,75.07,48.33,48.33,74.99,112.59,75.07,180.95,0,68.37-26.63,132.66-74.98,181.01-48.35,48.35-112.64,74.98-181.02,74.98ZM364.68,298.86c-7.3,48.91-23.22,95.61-47.3,138.79l-13.89,24.91,26.67-10.11c65.97-25,114.81-80.97,130.64-149.72l2.93-12.74h-97.73l-1.32,8.87ZM51.2,302.74c15.83,68.75,64.67,124.72,130.64,149.72l26.66,10.1-13.88-24.9c-24.08-43.19-39.99-89.89-47.31-138.8l-1.33-8.87H48.27l2.93,12.74ZM194.38,302.32c9.02,48,26.79,93.28,52.82,134.61l8.81,13.98,8.8-13.98c26.02-41.32,43.79-86.61,52.82-134.61l2.32-12.33h-127.88l2.32,12.33ZM317.39,74.37c27.92,49.64,44.58,103.59,49.52,160.33l.83,9.5h98.41l-1.32-11.58c-4.38-38.45-19.25-74.92-43.02-105.47-23.77-30.54-55.47-53.93-91.67-67.62l-26.79-10.13,14.04,24.97ZM247.23,75.02c-30.2,47.32-49.53,101.82-55.89,157.6l-1.32,11.59h131.97l-1.32-11.58c-6.36-55.78-25.68-110.28-55.89-157.6l-8.77-13.74-8.77,13.74ZM181.85,59.54c-36.2,13.69-67.9,37.07-91.67,67.62-23.77,30.54-38.65,67.01-43.02,105.47l-1.32,11.58h98.41l.83-9.5c4.94-56.74,21.6-110.68,49.52-160.33l14.04-24.97-26.79,10.13Z"/>
</svg>