<?xml version="1.0" encoding="utf-8"?>
<!-- Generator: Adobe Illustrator 27.4.0, SVG Export Plug-In . SVG Version: 6.00 Build 0)  -->
<svg version="1.1" id="Layer_1" xmlns="http://www.w3.org/2000/svg" xmlns:xlink="http://www.w3.org/1999/xlink" x="0px" y="0px"
	 viewBox="0 0 431.6 431.6" style="enable-background:new 0 0 431.6 431.6;" xml:space="preserve">
<style type="text/css">
	.st0{fill:#231F20;stroke:#FEF701;stroke-width:8;stroke-miterlimit:10;}
	.st1{fill:#B7B7B7;}
	.st2{fill:#AAAAAA;}
	.st3{fill:#757575;}
	.st4{fill:#A0A0A0;}
	.st5{fill:#CBCBCB;}
	.st6{fill:none;stroke:#4F4F4F;stroke-width:6;stroke-miterlimit:10;}
	.st7{fill:none;stroke:#0000FF;stroke-width:6;stroke-linecap:round;stroke-miterlimit:10;}
	.st8{fill:none;stroke:#FF0000;stroke-width:6;stroke-linecap:round;stroke-miterlimit:10;}
	.st9{fill:none;stroke:#00FF00;stroke-width:6;stroke-linecap:round;stroke-miterlimit:10;}
</style>
<circle class="st0" cx="215.8" cy="215.8" r="207.62"/>
<g id="A">
	<polygon class="st1" points="235.54,59.72 204.09,71.96 301.23,361.73 330.74,345.03 	"/>
	<polygon class="st2" points="202.14,54.98 169.85,66.95 204.09,71.96 235.54,59.72 	"/>
	<polygon class="st3" points="145.63,309.4 199.91,156.86 184.6,121.79 113.62,325.27 	"/>
	<polygon class="st4" points="226.63,243.71 146.75,230.07 178.76,216.3 226.63,223.53 	"/>
	<path class="st5" d="M204.09,71.96l-34.24-5.01L83.84,318.86l29.78,6.4l24.22-67.92l99.37,18.37l26.72,79.05l37.3,6.96
		L204.09,71.96z M146.75,230.07l37.86-108.28l42.03,121.92L146.75,230.07z"/>
</g>
<ellipse class="st6" cx="215.8" cy="215.8" rx="177.76" ry="181.14"/>
<path class="st7" d="M143.23,50.4c76.57-33.21,170.99,14.23,210.73,105.85s9.49,192.41-67.08,225.62"/>
<path class="st8" d="M181.72,393.61c-55.17-10.56-84.64-98.56-65.81-196.95S194.73,27.44,249.9,37.99"/>
<path class="st9" d="M393.56,215.12c0.31,30.48-79.3,56.05-177.47,57.05s-177.71-22.9-178.01-53.39"/>
</svg>
