<?xml version="1.0" encoding="UTF-8"?>
<svg id="Layer_1" xmlns="http://www.w3.org/2000/svg" version="1.1" viewBox="0 0 800 800">
  <!-- Generator: Adobe Illustrator 30.1.0, SVG Export Plug-In . SVG Version: 2.1.1 Build 136)  -->
  <defs>
    <style>
      .st0 {
        fill: #9c6;
      }
    </style>
  </defs>
  <path class="st0" d="M400,61c-10.92,0-21.68,4.14-29.96,12.41l-72.34,72.34h-109.58c-23.34,0-42.38,19.04-42.38,42.38v109.58l-72.34,72.34c-16.55,16.55-16.55,43.37,0,59.92l72.34,72.34v109.58c0,23.34,19.04,42.38,42.38,42.38h109.58l72.34,72.34c16.55,16.55,43.37,16.55,59.92,0l72.34-72.34h109.58c23.34,0,42.38-19.04,42.38-42.38v-109.58l72.34-72.34c16.55-16.55,16.55-43.37,0-59.92l-72.34-72.34v-109.58c0-23.34-19.04-42.38-42.38-42.38h-109.58l-72.34-72.34c-8.28-8.28-19.04-12.41-29.96-12.41h0ZM400,272.88c10.92,0,21.68,4.14,29.96,12.41l84.75,84.75c7.78,7.95,12.25,18.7,12.08,29.96h.33v42.38h-84.75v84.75h-84.75v-84.75h-84.75v-42.38h.33c-.17-11.26,4.3-22.02,12.08-29.96l84.75-84.75c8.28-8.28,19.04-12.41,29.96-12.41Z"/>
</svg>